<svg xmlns="http://www.w3.org/2000/svg" width="99.7578" height="99.7588" viewBox="0 0 99.7578 99.7588"><defs><style>.cls-1{fill:#eeefd8;}.cls-2{fill:#c2c48d;}.cls-3{fill:#aaaa7b;}.cls-4{fill:#878664;}</style></defs><g id="Layer_2" data-name="Layer 2"><g id="OBJECTS"><path class="cls-1" d="M98.0264,45.6973a5.8769,5.8769,0,0,0-4.1836-1.7334H91.4922a41.8237,41.8237,0,0,0-8.0029-19.3281L85.15,22.9746a5.9158,5.9158,0,0,0-8.3672-8.3652l-1.66,1.66A41.8062,41.8062,0,0,0,55.795,8.2676V5.916a5.9161,5.9161,0,0,0-11.8321,0V8.2676A41.8062,41.8062,0,0,0,24.6348,16.27l-1.66-1.66a5.9154,5.9154,0,1,0-8.3652,8.3662l1.66,1.66a41.8014,41.8014,0,0,0-8.002,19.3281H5.916a5.916,5.916,0,0,0,0,11.832H8.2676A41.8022,41.8022,0,0,0,16.27,75.1241l-1.6612,1.6611a5.9151,5.9151,0,1,0,8.3662,8.3642l1.66-1.6591a41.8047,41.8047,0,0,0,19.3281,8.0009v2.3536a5.9161,5.9161,0,0,0,11.8321,0V91.4912A41.8047,41.8047,0,0,0,75.1231,83.49l1.66,1.6591a5.9151,5.9151,0,0,0,8.3653-8.3652l-1.6592-1.66a41.8245,41.8245,0,0,0,8.0029-19.3282h2.3506a5.9165,5.9165,0,0,0,4.1836-10.0986Z"/><path class="cls-2" d="M63.5869,72.8389H41.8106a4.0376,4.0376,0,0,0,0,8.0752H63.5869a4.0376,4.0376,0,0,0,0-8.0752Z"/><path class="cls-3" d="M69.6231,76.877H35.7744a4.0357,4.0357,0,1,0,0,8.0713H69.6231a4.0357,4.0357,0,1,0,0-8.0713Z"/><path class="cls-4" d="M76.9229,80.9141H28.4737A4.0342,4.0342,0,0,0,24.44,84.9483v4.0371H80.958V84.9483A4.035,4.035,0,0,0,76.9229,80.9141Z"/><path class="cls-2" d="M39.1475,66.1631l-1.0557-1.1474L15.5567,88.083a3.8777,3.8777,0,0,1-.293.3037,4.002,4.002,0,1,1-5.0928-6.16L35.042,61.6992,33.9854,60.55a2.1391,2.1391,0,1,1,3.1494-2.8955l.6025.6543,2.9375-3.6953,4.9493,5.3818-3.9278,2.6182.6006.6543a2.1391,2.1391,0,1,1-3.1494,2.8955Z"/><path class="cls-2" d="M54.3838,43.5684l-4.4346-4.8223a1.8966,1.8966,0,0,0-2.6816-.1113L35.16,49.7686a1.898,1.898,0,0,0-.1123,2.6806l4.4355,4.8223Z"/><rect class="cls-3" x="32.3727" y="40.6198" width="14.89" height="4.1261" transform="translate(-18.3818 38.1993) rotate(-42.5838)"/><path class="cls-4" d="M44.51,32.5157a2.2437,2.2437,0,0,0-3.169-.1329L29.4268,43.34a2.2434,2.2434,0,0,0,3.0371,3.3027L44.378,35.6856A2.2423,2.2423,0,0,0,44.51,32.5157Z"/><path class="cls-4" d="M55.39,42.6436l-1.7188-1.8682a1.1892,1.1892,0,0,0-1.6816-.07L36.83,54.6475a1.1881,1.1881,0,0,0-.07,1.6807l1.7178,1.8681Z"/><path class="cls-2" d="M42.875,60.96,47.31,65.7823a1.8965,1.8965,0,0,0,2.6807.1123L62.0987,54.76a1.899,1.899,0,0,0,.1123-2.6807l-4.4346-4.8222Z"/><rect class="cls-3" x="49.996" y="59.7831" width="14.8899" height="4.1261" transform="translate(-26.7037 55.2054) rotate(-42.6025)"/><path class="cls-4" d="M52.7481,72.0137a2.2445,2.2445,0,0,0,3.1689.1328l11.9151-10.958a2.2431,2.2431,0,0,0-3.0371-3.3018L52.8809,68.8428A2.2434,2.2434,0,0,0,52.7481,72.0137Z"/><path class="cls-4" d="M41.8692,61.8848l1.7177,1.8672a1.1881,1.1881,0,0,0,1.6807.07l15.16-13.9414a1.19,1.19,0,0,0,.07-1.6817l-1.7168-1.8671Z"/><rect class="cls-3" x="37.1414" y="49.7588" width="22.9762" height="5.0108" transform="matrix(0.7361, -0.6769, 0.6769, 0.7361, -22.5428, 46.7072)"/><path class="cls-4" d="M42.169,66.291a2.1365,2.1365,0,0,1-3.0215-.1279L33.9854,60.55a2.1391,2.1391,0,1,1,3.1494-2.8955l5.1621,5.6133A2.1388,2.1388,0,0,1,42.169,66.291Z"/><path class="cls-4" d="M14.1123,87.1123a2.2866,2.2866,0,1,1,.1348-3.23A2.2852,2.2852,0,0,1,14.1123,87.1123Z"/></g></g></svg>